<svg width="165" height="55" viewBox="0 0 165 55" fill="none" xmlns="http://www.w3.org/2000/svg">
<path d="M5.97895 14.3596C6.39832 13.7958 6.95062 13.0327 7.39291 12.4873C8.71749 10.984 8.88937 10.7869 10.0948 9.67542C10.4523 9.38208 10.8762 9.02917 11.291 8.69688C8.23166 11.2865 7.84207 14.1533 10.6494 15.9248C10.6448 15.9248 10.6448 15.9248 10.6448 15.9294C14.5704 18.2944 23.1733 17.7833 29.9612 14.7538C36.536 11.8204 38.9629 7.62438 35.7179 5.13104C32.8694 4.59708 29.4731 4.53521 25.8798 5.01646L25.5062 4.4L25.8156 3.37792C27.9285 3.18771 29.936 3.23354 31.6685 3.52917C32.0879 3.60021 32.6402 3.72167 33.0527 3.80875C33.8502 4.00354 34.2833 4.12042 34.8035 4.28771C35.3352 4.44583 35.7889 4.60396 36.5796 4.89729C37.3542 5.20208 37.6887 5.33958 38.3098 5.64896C39.0053 5.96627 39.681 6.32519 40.3333 6.72375C45.5033 9.97563 42.2881 15.9087 33.165 19.9742C24.0671 24.0258 12.4735 24.6629 7.27832 21.45C7.27603 21.4454 7.26916 21.4408 7.25541 21.4363H7.26457C4.42749 19.6396 4.12957 17.0317 5.97895 14.3596ZM29.6496 37.0929L29.5762 33.44L26.9798 30.5525C18.4021 32.4958 9.97103 32.0788 5.28228 29.3173C5.26624 29.299 5.22728 29.2806 5.21124 29.2623C2.55749 27.6283 1.90207 25.52 2.10145 23.2283C1.48041 26.581 1.42999 27.791 1.51937 30.6602C1.62937 32.4569 2.66749 34.1138 4.7552 35.42L4.77124 35.4383C9.76937 38.5458 20.1827 39.2196 29.6496 37.0929ZM40.4777 41.2752C28.3708 46.1313 13.2183 46.4177 6.63666 41.9238C7.34743 43.6608 8.31457 45.2814 9.50582 46.7317C15.5467 50.8567 29.4548 50.5931 40.5625 46.1358C47.0639 43.5302 51.166 40.0629 52.2431 36.8133L52.5456 35.8348C53.2629 33.3552 53.3981 31.2904 53.5127 29.4525C53.3821 33.4423 48.6819 37.9798 40.4777 41.2752ZM13.7523 50.6275C14.1327 50.9896 15.3289 52.4585 21.3904 54.081C23.0289 54.4431 27.1539 55.605 34.7737 53.916L34.8196 53.2217L34.2169 52.2775C27.1471 53.9504 19.2935 53.3913 13.7523 50.6275ZM31.2469 21.7319L37.6842 26.6108C37.6842 26.6108 39.0614 27.6031 37.7621 28.2998C36.4673 28.9896 33.1421 30.6785 33.1421 30.6785L29.8581 29.4525L28.2104 30.1858L31.1162 32.709L31.1392 36.6346L32.8464 35.876L33.9785 32.56C33.9785 32.56 37.455 31.2217 38.8346 30.7175C40.221 30.2248 40.0354 31.9115 40.0354 31.9115L39.3525 39.9575L41.6212 38.9492L45.3567 28.0935C45.3567 28.0935 47.3367 27.131 48.73 26.2854C50.121 25.4398 50.5977 24.0373 50.5977 24.0373C50.5977 24.0373 49.241 23.4529 47.6781 23.9227C46.1152 24.3879 44.0779 25.2175 44.0779 25.2175L33.5087 20.7281L31.2469 21.7319ZM17.6275 6.29521L21.9977 9.77625L23.1917 9.5975L20.8129 6.47396C20.8129 6.47396 20.295 5.82771 20.9917 5.67417C21.6929 5.51833 23.4667 5.15625 23.4667 5.15625L24.8004 6.22188L25.6987 6.08896L24.6812 4.47104L25.2175 2.67667L24.3489 2.80271L23.32 4.16854C23.32 4.16854 21.5142 4.33813 20.8037 4.39771C20.0887 4.45271 20.3958 3.685 20.3958 3.685L21.7662 0L20.5654 0.176458L17.4029 4.78042C17.4029 4.78042 16.3487 4.97292 15.5856 5.19063C14.8202 5.40604 14.4169 5.99729 14.4169 5.99729C14.4169 5.99729 14.9783 6.45104 15.7689 6.435C16.5664 6.41896 17.6275 6.29521 17.6275 6.29521ZM39.2264 51.024L36.3985 49.5458L35.7477 49.7727L37.4229 51.2715C37.4229 51.2715 37.7804 51.5763 37.4046 51.739C37.0287 51.8994 36.0708 52.2935 36.0708 52.2935L35.2802 51.9406L34.8104 52.1102L35.4681 52.8115L35.4039 53.8358L35.8944 53.6662L36.261 52.8344C36.261 52.8344 37.2556 52.5387 37.6521 52.4333C38.0462 52.3256 37.9569 52.7885 37.9569 52.7885L37.5833 55L38.2364 54.7731L39.5175 51.849C39.5175 51.849 40.0835 51.6267 40.4892 51.4227C40.8948 51.2188 41.0552 50.8429 41.0552 50.8429C41.0552 50.8429 40.6954 50.6458 40.2508 50.7444C39.8039 50.8383 39.2264 51.024 39.2264 51.024Z" fill="#5DDECF"/>
<path d="M81.175 18.45V21.875H76.525V36H72.25V21.875H67.6V18.45H81.175ZM89.6705 36.2C88.3038 36.2 87.0705 35.9083 85.9705 35.325C84.8872 34.7417 84.0288 33.9083 83.3955 32.825C82.7788 31.7417 82.4705 30.475 82.4705 29.025C82.4705 27.5917 82.7872 26.3333 83.4205 25.25C84.0538 24.15 84.9205 23.3083 86.0205 22.725C87.1205 22.1417 88.3538 21.85 89.7205 21.85C91.0872 21.85 92.3205 22.1417 93.4205 22.725C94.5205 23.3083 95.3872 24.15 96.0205 25.25C96.6538 26.3333 96.9705 27.5917 96.9705 29.025C96.9705 30.4583 96.6455 31.725 95.9955 32.825C95.3622 33.9083 94.4872 34.7417 93.3705 35.325C92.2705 35.9083 91.0372 36.2 89.6705 36.2ZM89.6705 32.5C90.4872 32.5 91.1788 32.2 91.7455 31.6C92.3288 31 92.6205 30.1417 92.6205 29.025C92.6205 27.9083 92.3372 27.05 91.7705 26.45C91.2205 25.85 90.5372 25.55 89.7205 25.55C88.8872 25.55 88.1955 25.85 87.6455 26.45C87.0955 27.0333 86.8205 27.8917 86.8205 29.025C86.8205 30.1417 87.0872 31 87.6205 31.6C88.1705 32.2 88.8538 32.5 89.6705 32.5ZM113.013 22.05V36H108.738V34.1C108.305 34.7167 107.713 35.2167 106.963 35.6C106.23 35.9667 105.413 36.15 104.513 36.15C103.447 36.15 102.505 35.9167 101.688 35.45C100.872 34.9667 100.238 34.275 99.7885 33.375C99.3385 32.475 99.1135 31.4167 99.1135 30.2V22.05H103.363V29.625C103.363 30.5583 103.605 31.2833 104.088 31.8C104.572 32.3167 105.222 32.575 106.038 32.575C106.872 32.575 107.53 32.3167 108.013 31.8C108.497 31.2833 108.738 30.5583 108.738 29.625V22.05H113.013ZM120.359 24.375C120.859 23.6083 121.484 23.0083 122.234 22.575C122.984 22.125 123.818 21.9 124.734 21.9V26.425H123.559C122.493 26.425 121.693 26.6583 121.159 27.125C120.626 27.575 120.359 28.375 120.359 29.525V36H116.084V22.05H120.359V24.375Z" fill="#BCBCBC"/>
<path d="M130.953 30.65C131.203 31.9667 131.969 32.625 133.253 32.625C134.136 32.625 134.761 32.2333 135.128 31.45C135.494 30.6667 135.678 29.3917 135.678 27.625C135.311 28.1417 134.811 28.5417 134.178 28.825C133.544 29.1083 132.836 29.25 132.053 29.25C130.986 29.25 130.036 29.0333 129.203 28.6C128.369 28.15 127.711 27.4917 127.228 26.625C126.761 25.7417 126.528 24.675 126.528 23.425C126.528 22.1917 126.778 21.1167 127.278 20.2C127.794 19.2833 128.519 18.575 129.453 18.075C130.403 17.575 131.519 17.325 132.803 17.325C135.269 17.325 136.994 18.0917 137.978 19.625C138.961 21.1583 139.453 23.4167 139.453 26.4C139.453 28.5667 139.253 30.3583 138.853 31.775C138.469 33.175 137.811 34.2417 136.878 34.975C135.961 35.7083 134.703 36.075 133.103 36.075C131.836 36.075 130.753 35.825 129.853 35.325C128.969 34.825 128.286 34.1667 127.803 33.35C127.336 32.5333 127.069 31.6333 127.003 30.65H130.953ZM133.028 25.875C133.728 25.875 134.286 25.6667 134.703 25.25C135.119 24.8167 135.328 24.2333 135.328 23.5C135.328 22.7 135.111 22.0833 134.678 21.65C134.244 21.2167 133.661 21 132.928 21C132.194 21 131.611 21.225 131.178 21.675C130.761 22.1083 130.553 22.7083 130.553 23.475C130.553 24.1917 130.761 24.775 131.178 25.225C131.611 25.6583 132.228 25.875 133.028 25.875ZM144.283 20.6C143.533 20.6 142.917 20.3833 142.433 19.95C141.967 19.5 141.733 18.95 141.733 18.3C141.733 17.6333 141.967 17.0833 142.433 16.65C142.917 16.2 143.533 15.975 144.283 15.975C145.017 15.975 145.617 16.2 146.083 16.65C146.567 17.0833 146.808 17.6333 146.808 18.3C146.808 18.95 146.567 19.5 146.083 19.95C145.617 20.3833 145.017 20.6 144.283 20.6ZM146.433 37.8C146.433 39.5167 146 40.75 145.133 41.5C144.267 42.2667 143.058 42.65 141.508 42.65H139.833V39.025H140.858C141.325 39.025 141.658 38.9333 141.858 38.75C142.058 38.5667 142.158 38.2667 142.158 37.85V22.05H146.433V37.8ZM148.657 29C148.657 27.5667 148.924 26.3083 149.457 25.225C150.007 24.1417 150.749 23.3083 151.682 22.725C152.615 22.1417 153.657 21.85 154.807 21.85C155.79 21.85 156.649 22.05 157.382 22.45C158.132 22.85 158.707 23.375 159.107 24.025V22.05H163.382V36H159.107V34.025C158.69 34.675 158.107 35.2 157.357 35.6C156.624 36 155.765 36.2 154.782 36.2C153.649 36.2 152.615 35.9083 151.682 35.325C150.749 34.725 150.007 33.8833 149.457 32.8C148.924 31.7 148.657 30.4333 148.657 29ZM159.107 29.025C159.107 27.9583 158.807 27.1167 158.207 26.5C157.624 25.8833 156.907 25.575 156.057 25.575C155.207 25.575 154.482 25.8833 153.882 26.5C153.299 27.1 153.007 27.9333 153.007 29C153.007 30.0667 153.299 30.9167 153.882 31.55C154.482 32.1667 155.207 32.475 156.057 32.475C156.907 32.475 157.624 32.1667 158.207 31.55C158.807 30.9333 159.107 30.0917 159.107 29.025Z" fill="#5DDECF"/>
</svg>
