<svg width="331" height="45" viewBox="0 0 331 45" fill="none" xmlns="http://www.w3.org/2000/svg">
<path d="M12.5 35.5C10.2083 35.5 8.35417 37.375 8.35417 39.6667C8.35417 41.9584 10.2083 43.8334 12.5 43.8334C14.7917 43.8334 16.6667 41.9584 16.6667 39.6667C16.6667 37.375 14.7917 35.5 12.5 35.5ZM33.3333 35.5C31.0417 35.5 29.1875 37.375 29.1875 39.6667C29.1875 41.9584 31.0417 43.8334 33.3333 43.8334C35.625 43.8334 37.5 41.9584 37.5 39.6667C37.5 37.375 35.625 35.5 33.3333 35.5ZM30.3125 25.0834C31.875 25.0834 33.25 24.2292 33.9583 22.9375L41.4167 9.41669C41.5922 9.10091 41.6823 8.74475 41.678 8.38347C41.6737 8.02218 41.5751 7.66829 41.392 7.35681C41.2089 7.04534 40.9476 6.78706 40.634 6.60756C40.3205 6.42805 39.9655 6.33353 39.6042 6.33335H8.77083L6.8125 2.16669H0V6.33335H4.16667L11.6667 22.1459L8.85417 27.2292C7.33333 30.0209 9.33333 33.4167 12.5 33.4167H37.5V29.25H12.5L14.7917 25.0834H30.3125ZM10.75 10.5H36.0625L30.3125 20.9167H15.6875L10.75 10.5Z" fill="#D16587"/>
<path d="M67.7367 33.21C65.7567 33.21 63.9367 32.75 62.2767 31.83C60.6367 30.91 59.3267 29.63 58.3467 27.99C57.3867 26.33 56.9067 24.47 56.9067 22.41C56.9067 20.35 57.3867 18.5 58.3467 16.86C59.3267 15.22 60.6367 13.94 62.2767 13.02C63.9367 12.1 65.7567 11.64 67.7367 11.64C69.7167 11.64 71.5267 12.1 73.1667 13.02C74.8267 13.94 76.1267 15.22 77.0667 16.86C78.0267 18.5 78.5067 20.35 78.5067 22.41C78.5067 24.47 78.0267 26.33 77.0667 27.99C76.1067 29.63 74.8067 30.91 73.1667 31.83C71.5267 32.75 69.7167 33.21 67.7367 33.21ZM67.7367 28.53C69.4167 28.53 70.7567 27.97 71.7567 26.85C72.7767 25.73 73.2867 24.25 73.2867 22.41C73.2867 20.55 72.7767 19.07 71.7567 17.97C70.7567 16.85 69.4167 16.29 67.7367 16.29C66.0367 16.29 64.6767 16.84 63.6567 17.94C62.6567 19.04 62.1567 20.53 62.1567 22.41C62.1567 24.27 62.6567 25.76 63.6567 26.88C64.6767 27.98 66.0367 28.53 67.7367 28.53ZM86.4907 10.8V33H81.3607V10.8H86.4907ZM92.7883 14.52C91.8883 14.52 91.1483 14.26 90.5683 13.74C90.0083 13.2 89.7283 12.54 89.7283 11.76C89.7283 10.96 90.0083 10.3 90.5683 9.78C91.1483 9.24 91.8883 8.97 92.7883 8.97C93.6683 8.97 94.3883 9.24 94.9483 9.78C95.5283 10.3 95.8183 10.96 95.8183 11.76C95.8183 12.54 95.5283 13.2 94.9483 13.74C94.3883 14.26 93.6683 14.52 92.7883 14.52ZM95.3383 16.26V33H90.2083V16.26H95.3383ZM106.586 28.2L110.216 16.26H115.676L109.736 33H103.406L97.466 16.26H102.956L106.586 28.2ZM120.415 14.52C119.515 14.52 118.775 14.26 118.195 13.74C117.635 13.2 117.355 12.54 117.355 11.76C117.355 10.96 117.635 10.3 118.195 9.78C118.775 9.24 119.515 8.97 120.415 8.97C121.295 8.97 122.015 9.24 122.575 9.78C123.155 10.3 123.445 10.96 123.445 11.76C123.445 12.54 123.155 13.2 122.575 13.74C122.015 14.26 121.295 14.52 120.415 14.52ZM122.965 16.26V33H117.835V16.26H122.965ZM125.663 24.6C125.663 22.88 125.983 21.37 126.623 20.07C127.283 18.77 128.173 17.77 129.293 17.07C130.413 16.37 131.663 16.02 133.043 16.02C134.223 16.02 135.253 16.26 136.133 16.74C137.033 17.22 137.723 17.85 138.203 18.63V16.26H143.333V33H138.203V30.63C137.703 31.41 137.003 32.04 136.103 32.52C135.223 33 134.193 33.24 133.013 33.24C131.653 33.24 130.413 32.89 129.293 32.19C128.173 31.47 127.283 30.46 126.623 29.16C125.983 27.84 125.663 26.32 125.663 24.6ZM138.203 24.63C138.203 23.35 137.843 22.34 137.123 21.6C136.423 20.86 135.563 20.49 134.543 20.49C133.523 20.49 132.653 20.86 131.933 21.6C131.233 22.32 130.883 23.32 130.883 24.6C130.883 25.88 131.233 26.9 131.933 27.66C132.653 28.4 133.523 28.77 134.543 28.77C135.563 28.77 136.423 28.4 137.123 27.66C137.843 26.92 138.203 25.91 138.203 24.63ZM163.154 33L161.204 31.11C159.264 32.59 156.944 33.33 154.244 33.33C152.624 33.33 151.214 33.07 150.014 32.55C148.814 32.01 147.884 31.26 147.224 30.3C146.584 29.32 146.264 28.18 146.264 26.88C146.264 25.56 146.614 24.37 147.314 23.31C148.034 22.23 149.104 21.35 150.524 20.67C150.004 20.03 149.634 19.42 149.414 18.84C149.194 18.24 149.084 17.59 149.084 16.89C149.084 15.89 149.344 14.98 149.864 14.16C150.384 13.34 151.134 12.7 152.114 12.24C153.114 11.76 154.294 11.52 155.654 11.52C157.034 11.52 158.204 11.77 159.164 12.27C160.124 12.77 160.844 13.44 161.324 14.28C161.804 15.12 162.024 16.04 161.984 17.04H157.154C157.174 16.5 157.034 16.09 156.734 15.81C156.454 15.51 156.074 15.36 155.594 15.36C155.114 15.36 154.714 15.5 154.394 15.78C154.074 16.06 153.914 16.42 153.914 16.86C153.914 17.28 154.044 17.72 154.304 18.18C154.584 18.64 155.014 19.17 155.594 19.77L160.724 24.78C160.764 24.68 160.814 24.56 160.874 24.42C160.954 24.28 161.034 24.12 161.114 23.94L162.224 22.05H167.354L165.914 24.66C165.374 25.84 164.754 26.96 164.054 28.02L169.124 33H163.154ZM154.484 29.19C155.824 29.19 157.014 28.81 158.054 28.05L153.374 23.52C151.934 24.26 151.214 25.26 151.214 26.52C151.214 27.28 151.504 27.92 152.084 28.44C152.684 28.94 153.484 29.19 154.484 29.19Z" fill="black"/>
<path d="M184.18 11.94V26.28C184.18 28.5 183.55 30.21 182.29 31.41C181.05 32.61 179.37 33.21 177.25 33.21C175.03 33.21 173.25 32.58 171.91 31.32C170.57 30.06 169.9 28.27 169.9 25.95H175C175 26.83 175.18 27.5 175.54 27.96C175.9 28.4 176.42 28.62 177.1 28.62C177.72 28.62 178.2 28.42 178.54 28.02C178.88 27.62 179.05 27.04 179.05 26.28V11.94H184.18ZM204.104 24.36C204.104 24.84 204.074 25.34 204.014 25.86H192.404C192.484 26.9 192.814 27.7 193.394 28.26C193.994 28.8 194.724 29.07 195.584 29.07C196.864 29.07 197.754 28.53 198.254 27.45H203.714C203.434 28.55 202.924 29.54 202.184 30.42C201.464 31.3 200.554 31.99 199.454 32.49C198.354 32.99 197.124 33.24 195.764 33.24C194.124 33.24 192.664 32.89 191.384 32.19C190.104 31.49 189.104 30.49 188.384 29.19C187.664 27.89 187.304 26.37 187.304 24.63C187.304 22.89 187.654 21.37 188.354 20.07C189.074 18.77 190.074 17.77 191.354 17.07C192.634 16.37 194.104 16.02 195.764 16.02C197.384 16.02 198.824 16.36 200.084 17.04C201.344 17.72 202.324 18.69 203.024 19.95C203.744 21.21 204.104 22.68 204.104 24.36ZM198.854 23.01C198.854 22.13 198.554 21.43 197.954 20.91C197.354 20.39 196.604 20.13 195.704 20.13C194.844 20.13 194.114 20.38 193.514 20.88C192.934 21.38 192.574 22.09 192.434 23.01H198.854ZM215.21 20.52H212.45V33H207.32V20.52H205.46V16.26H207.32V15.78C207.32 13.72 207.91 12.16 209.09 11.1C210.27 10.02 212 9.48 214.28 9.48C214.66 9.48 214.94 9.49 215.12 9.51V13.86C214.14 13.8 213.45 13.94 213.05 14.28C212.65 14.62 212.45 15.23 212.45 16.11V16.26H215.21V20.52ZM226.02 20.52H223.26V33H218.13V20.52H216.27V16.26H218.13V15.78C218.13 13.72 218.72 12.16 219.9 11.1C221.08 10.02 222.81 9.48 225.09 9.48C225.47 9.48 225.75 9.49 225.93 9.51V13.86C224.95 13.8 224.26 13.94 223.86 14.28C223.46 14.62 223.26 15.23 223.26 16.11V16.26H226.02V20.52ZM233.561 19.05C234.161 18.13 234.911 17.41 235.811 16.89C236.711 16.35 237.711 16.08 238.811 16.08V21.51H237.401C236.121 21.51 235.161 21.79 234.521 22.35C233.881 22.89 233.561 23.85 233.561 25.23V33H228.431V16.26H233.561V19.05ZM257.043 24.36C257.043 24.84 257.013 25.34 256.953 25.86H245.343C245.423 26.9 245.753 27.7 246.333 28.26C246.933 28.8 247.663 29.07 248.523 29.07C249.803 29.07 250.693 28.53 251.193 27.45H256.653C256.373 28.55 255.863 29.54 255.123 30.42C254.403 31.3 253.493 31.99 252.393 32.49C251.293 32.99 250.063 33.24 248.703 33.24C247.063 33.24 245.603 32.89 244.323 32.19C243.043 31.49 242.043 30.49 241.323 29.19C240.603 27.89 240.243 26.37 240.243 24.63C240.243 22.89 240.593 21.37 241.293 20.07C242.013 18.77 243.013 17.77 244.293 17.07C245.573 16.37 247.043 16.02 248.703 16.02C250.323 16.02 251.763 16.36 253.023 17.04C254.283 17.72 255.263 18.69 255.963 19.95C256.683 21.21 257.043 22.68 257.043 24.36ZM251.793 23.01C251.793 22.13 251.493 21.43 250.893 20.91C250.293 20.39 249.543 20.13 248.643 20.13C247.783 20.13 247.053 20.38 246.453 20.88C245.873 21.38 245.513 22.09 245.373 23.01H251.793ZM276.849 16.26L266.349 40.95H260.829L264.669 32.43L257.859 16.26H263.589L267.459 26.73L271.299 16.26H276.849ZM290.192 29.04H296.912V33H285.062V11.94H290.192V29.04ZM308.689 28.65V33H306.079C304.219 33 302.769 32.55 301.729 31.65C300.689 30.73 300.169 29.24 300.169 27.18V20.52H298.129V16.26H300.169V12.18H305.299V16.26H308.659V20.52H305.299V27.24C305.299 27.74 305.419 28.1 305.659 28.32C305.899 28.54 306.299 28.65 306.859 28.65H308.689ZM310.526 24.6C310.526 22.88 310.846 21.37 311.486 20.07C312.146 18.77 313.036 17.77 314.156 17.07C315.276 16.37 316.526 16.02 317.906 16.02C319.006 16.02 320.006 16.25 320.906 16.71C321.826 17.17 322.546 17.79 323.066 18.57V10.8H328.196V33H323.066V30.6C322.586 31.4 321.896 32.04 320.996 32.52C320.116 33 319.086 33.24 317.906 33.24C316.526 33.24 315.276 32.89 314.156 32.19C313.036 31.47 312.146 30.46 311.486 29.16C310.846 27.84 310.526 26.32 310.526 24.6ZM323.066 24.63C323.066 23.35 322.706 22.34 321.986 21.6C321.286 20.86 320.426 20.49 319.406 20.49C318.386 20.49 317.516 20.86 316.796 21.6C316.096 22.32 315.746 23.32 315.746 24.6C315.746 25.88 316.096 26.9 316.796 27.66C317.516 28.4 318.386 28.77 319.406 28.77C320.426 28.77 321.286 28.4 321.986 27.66C322.706 26.92 323.066 25.91 323.066 24.63Z" fill="#D16587"/>
</svg>
