<svg width="180" height="36" viewBox="0 0 180 36" fill="none" xmlns="http://www.w3.org/2000/svg">
<path d="M31.9256 12.4137L22.9994 11.1164L19.0092 3.02698C18.9002 2.80549 18.7209 2.6262 18.4994 2.51721C17.944 2.24299 17.269 2.47151 16.9912 3.02698L13.001 11.1164L4.07483 12.4137C3.82873 12.4489 3.60373 12.5649 3.43147 12.7406C3.22321 12.9547 3.10845 13.2427 3.1124 13.5413C3.11636 13.8399 3.23871 14.1248 3.45256 14.3332L9.91076 20.6297L8.38498 29.5207C8.3492 29.7275 8.37209 29.9403 8.45105 30.1347C8.53001 30.3292 8.66188 30.4977 8.83171 30.621C9.00154 30.7444 9.20253 30.8177 9.4119 30.8326C9.62126 30.8475 9.83062 30.8035 10.0162 30.7055L18.0002 26.5078L25.9842 30.7055C26.2022 30.8215 26.4553 30.8602 26.6979 30.818C27.3096 30.7125 27.7209 30.1324 27.6155 29.5207L26.0897 20.6297L32.5479 14.3332C32.7237 14.161 32.8397 13.936 32.8748 13.6899C32.9697 13.0746 32.5408 12.5051 31.9256 12.4137Z" fill="#FB4910"/>
<path d="M67.9256 12.4137L58.9994 11.1164L55.0092 3.02698C54.9002 2.80549 54.7209 2.6262 54.4994 2.51721C53.944 2.24299 53.269 2.47151 52.9912 3.02698L49.001 11.1164L40.0748 12.4137C39.8287 12.4489 39.6037 12.5649 39.4315 12.7406C39.2232 12.9547 39.1084 13.2427 39.1124 13.5413C39.1164 13.8399 39.2387 14.1248 39.4526 14.3332L45.9108 20.6297L44.385 29.5207C44.3492 29.7275 44.3721 29.9403 44.451 30.1347C44.53 30.3292 44.6619 30.4977 44.8317 30.621C45.0015 30.7444 45.2025 30.8177 45.4119 30.8326C45.6213 30.8475 45.8306 30.8035 46.0162 30.7055L54.0002 26.5078L61.9842 30.7055C62.2022 30.8215 62.4553 30.8602 62.6979 30.818C63.3096 30.7125 63.7209 30.1324 63.6155 29.5207L62.0897 20.6297L68.5479 14.3332C68.7237 14.161 68.8397 13.936 68.8748 13.6899C68.9697 13.0746 68.5408 12.5051 67.9256 12.4137Z" fill="#FB4910"/>
<path d="M103.926 12.4137L94.9994 11.1164L91.0092 3.02698C90.9002 2.80549 90.7209 2.6262 90.4994 2.51721C89.944 2.24299 89.269 2.47151 88.9912 3.02698L85.001 11.1164L76.0748 12.4137C75.8287 12.4489 75.6037 12.5649 75.4315 12.7406C75.2232 12.9547 75.1084 13.2427 75.1124 13.5413C75.1164 13.8399 75.2387 14.1248 75.4526 14.3332L81.9108 20.6297L80.385 29.5207C80.3492 29.7275 80.3721 29.9403 80.451 30.1347C80.53 30.3292 80.6619 30.4977 80.8317 30.621C81.0015 30.7444 81.2025 30.8177 81.4119 30.8326C81.6213 30.8475 81.8306 30.8035 82.0162 30.7055L90.0002 26.5078L97.9842 30.7055C98.2022 30.8215 98.4553 30.8602 98.6979 30.818C99.3096 30.7125 99.7209 30.1324 99.6155 29.5207L98.0897 20.6297L104.548 14.3332C104.724 14.161 104.84 13.936 104.875 13.6899C104.97 13.0746 104.541 12.5051 103.926 12.4137Z" fill="#FB4910"/>
<path d="M139.926 12.4137L130.999 11.1164L127.009 3.02698C126.9 2.80549 126.721 2.6262 126.499 2.51721C125.944 2.24299 125.269 2.47151 124.991 3.02698L121.001 11.1164L112.075 12.4137C111.829 12.4489 111.604 12.5649 111.431 12.7406C111.223 12.9547 111.108 13.2427 111.112 13.5413C111.116 13.8399 111.239 14.1248 111.453 14.3332L117.911 20.6297L116.385 29.5207C116.349 29.7275 116.372 29.9403 116.451 30.1347C116.53 30.3292 116.662 30.4977 116.832 30.621C117.002 30.7444 117.203 30.8177 117.412 30.8326C117.621 30.8475 117.831 30.8035 118.016 30.7055L126 26.5078L133.984 30.7055C134.202 30.8215 134.455 30.8602 134.698 30.818C135.31 30.7125 135.721 30.1324 135.615 29.5207L134.09 20.6297L140.548 14.3332C140.724 14.161 140.84 13.936 140.875 13.6899C140.97 13.0746 140.541 12.5051 139.926 12.4137Z" fill="#FB4910"/>
<path d="M175.926 12.4137L166.999 11.1164L163.009 3.02698C162.9 2.80549 162.721 2.6262 162.499 2.51721C161.944 2.24299 161.269 2.47151 160.991 3.02698L157.001 11.1164L148.075 12.4137C147.829 12.4489 147.604 12.5649 147.431 12.7406C147.223 12.9547 147.108 13.2427 147.112 13.5413C147.116 13.8399 147.239 14.1248 147.453 14.3332L153.911 20.6297L152.385 29.5207C152.349 29.7275 152.372 29.9403 152.451 30.1347C152.53 30.3292 152.662 30.4977 152.832 30.621C153.002 30.7444 153.203 30.8177 153.412 30.8326C153.621 30.8475 153.831 30.8035 154.016 30.7055L162 26.5078L169.984 30.7055C170.202 30.8215 170.455 30.8602 170.698 30.818C171.31 30.7125 171.721 30.1324 171.615 29.5207L170.09 20.6297L176.548 14.3332C176.724 14.161 176.84 13.936 176.875 13.6899C176.97 13.0746 176.541 12.5051 175.926 12.4137Z" fill="#FB4910"/>
</svg>
