<svg width="120" height="24" viewBox="0 0 120 24" fill="none" xmlns="http://www.w3.org/2000/svg">
<path d="M21.2836 8.27584L15.3328 7.41099L12.6727 2.01803C12.6 1.87037 12.4805 1.75084 12.3328 1.67818C11.9625 1.49537 11.5125 1.64771 11.3274 2.01803L8.6672 7.41099L2.71642 8.27584C2.55236 8.29928 2.40236 8.37662 2.28751 8.49381C2.14867 8.63651 2.07217 8.8285 2.0748 9.02758C2.07744 9.22666 2.15901 9.41655 2.30158 9.55553L6.60704 13.7532L5.58986 19.6805C5.566 19.8184 5.58126 19.9602 5.6339 20.0899C5.68654 20.2195 5.77445 20.3318 5.88767 20.4141C6.00089 20.4963 6.13489 20.5452 6.27447 20.5551C6.41404 20.5651 6.55361 20.5357 6.67736 20.4704L12 17.6719L17.3227 20.4704C17.468 20.5477 17.6367 20.5735 17.7984 20.5454C18.2063 20.4751 18.4805 20.0883 18.4102 19.6805L17.393 13.7532L21.6984 9.55553C21.8156 9.44068 21.893 9.29068 21.9164 9.12662C21.9797 8.71646 21.6938 8.33678 21.2836 8.27584Z" fill="#EAFA30"/>
<path d="M45.2836 8.27584L39.3328 7.41099L36.6727 2.01803C36.6 1.87037 36.4805 1.75084 36.3328 1.67818C35.9625 1.49537 35.5125 1.64771 35.3274 2.01803L32.6672 7.41099L26.7164 8.27584C26.5524 8.29928 26.4024 8.37662 26.2875 8.49381C26.1487 8.63651 26.0722 8.8285 26.0748 9.02758C26.0774 9.22666 26.159 9.41655 26.3016 9.55553L30.607 13.7532L29.5899 19.6805C29.566 19.8184 29.5813 19.9602 29.6339 20.0899C29.6865 20.2195 29.7745 20.3318 29.8877 20.4141C30.0009 20.4963 30.1349 20.5452 30.2745 20.5551C30.414 20.5651 30.5536 20.5357 30.6774 20.4704L36 17.6719L41.3227 20.4704C41.468 20.5477 41.6367 20.5735 41.7984 20.5454C42.2063 20.4751 42.4805 20.0883 42.4102 19.6805L41.393 13.7532L45.6984 9.55553C45.8156 9.44068 45.893 9.29068 45.9164 9.12662C45.9797 8.71646 45.6938 8.33678 45.2836 8.27584Z" fill="#EAFA30"/>
<path d="M69.2836 8.27584L63.3328 7.41099L60.6727 2.01803C60.6 1.87037 60.4805 1.75084 60.3328 1.67818C59.9625 1.49537 59.5125 1.64771 59.3274 2.01803L56.6672 7.41099L50.7164 8.27584C50.5524 8.29928 50.4024 8.37662 50.2875 8.49381C50.1487 8.63651 50.0722 8.8285 50.0748 9.02758C50.0774 9.22666 50.159 9.41655 50.3016 9.55553L54.607 13.7532L53.5899 19.6805C53.566 19.8184 53.5813 19.9602 53.6339 20.0899C53.6865 20.2195 53.7745 20.3318 53.8877 20.4141C54.0009 20.4963 54.1349 20.5452 54.2745 20.5551C54.414 20.5651 54.5536 20.5357 54.6774 20.4704L60 17.6719L65.3227 20.4704C65.468 20.5477 65.6367 20.5735 65.7984 20.5454C66.2063 20.4751 66.4805 20.0883 66.4102 19.6805L65.393 13.7532L69.6984 9.55553C69.8156 9.44068 69.893 9.29068 69.9164 9.12662C69.9797 8.71646 69.6938 8.33678 69.2836 8.27584Z" fill="#EAFA30"/>
<path d="M93.2836 8.27584L87.3328 7.41099L84.6727 2.01803C84.6 1.87037 84.4805 1.75084 84.3328 1.67818C83.9625 1.49537 83.5125 1.64771 83.3274 2.01803L80.6672 7.41099L74.7164 8.27584C74.5524 8.29928 74.4024 8.37662 74.2875 8.49381C74.1487 8.63651 74.0722 8.8285 74.0748 9.02758C74.0774 9.22666 74.159 9.41655 74.3016 9.55553L78.607 13.7532L77.5899 19.6805C77.566 19.8184 77.5813 19.9602 77.6339 20.0899C77.6865 20.2195 77.7745 20.3318 77.8877 20.4141C78.0009 20.4963 78.1349 20.5452 78.2745 20.5551C78.414 20.5651 78.5536 20.5357 78.6774 20.4704L84 17.6719L89.3227 20.4704C89.468 20.5477 89.6367 20.5735 89.7984 20.5454C90.2063 20.4751 90.4805 20.0883 90.4102 19.6805L89.393 13.7532L93.6984 9.55553C93.8156 9.44068 93.893 9.29068 93.9164 9.12662C93.9797 8.71646 93.6938 8.33678 93.2836 8.27584Z" fill="#EAFA30"/>
<path d="M117.284 8.27584L111.333 7.41099L108.673 2.01803C108.6 1.87037 108.48 1.75084 108.333 1.67818C107.963 1.49537 107.513 1.64771 107.327 2.01803L104.667 7.41099L98.7164 8.27584C98.5524 8.29928 98.4024 8.37662 98.2875 8.49381C98.1487 8.63651 98.0722 8.8285 98.0748 9.02758C98.0774 9.22666 98.159 9.41655 98.3016 9.55553L102.607 13.7532L101.59 19.6805C101.566 19.8184 101.581 19.9602 101.634 20.0899C101.687 20.2195 101.774 20.3318 101.888 20.4141C102.001 20.4963 102.135 20.5452 102.274 20.5551C102.414 20.5651 102.554 20.5357 102.677 20.4704L108 17.6719L113.323 20.4704C113.468 20.5477 113.637 20.5735 113.798 20.5454C114.206 20.4751 114.48 20.0883 114.41 19.6805L113.393 13.7532L117.698 9.55553C117.816 9.44068 117.893 9.29068 117.916 9.12662C117.98 8.71646 117.694 8.33678 117.284 8.27584Z" fill="#EAFA30"/>
</svg>
