<svg width="157" height="100" viewBox="0 0 157 100" fill="none" xmlns="http://www.w3.org/2000/svg">
<path d="M5.75 23.25H43.25V37C43.25 38.3807 42.1307 39.5 40.75 39.5H8.25C6.86929 39.5 5.75 38.3807 5.75 37V23.25Z" fill="#2F88FF" stroke="black" stroke-width="4" stroke-linejoin="round"/>
<path d="M5.75 4.5C5.75 3.11929 6.86929 2 8.25 2H40.75C42.1307 2 43.25 3.11929 43.25 4.5V23.25H5.75V4.5Z" stroke="black" stroke-width="4" stroke-linejoin="round"/>
<path d="M13.25 47C11.1789 47 9.5 45.3211 9.5 43.25V39.5H17V43.25C17 45.3211 15.3211 47 13.25 47Z" fill="#2F88FF" stroke="black" stroke-width="4" stroke-linecap="round" stroke-linejoin="round"/>
<path d="M35.75 47C33.6789 47 32 45.3211 32 43.25V39.5H39.5V43.25C39.5 45.3211 37.8211 47 35.75 47Z" fill="#2F88FF" stroke="black" stroke-width="4" stroke-linecap="round" stroke-linejoin="round"/>
<path d="M2 9.5V14.5" stroke="black" stroke-width="4" stroke-linecap="round"/>
<path d="M47 9.5V14.5" stroke="black" stroke-width="4" stroke-linecap="round"/>
<path d="M13.25 34.5C14.6307 34.5 15.75 33.3807 15.75 32C15.75 30.6193 14.6307 29.5 13.25 29.5C11.8693 29.5 10.75 30.6193 10.75 32C10.75 33.3807 11.8693 34.5 13.25 34.5Z" fill="white"/>
<path d="M35.75 34.5C37.1307 34.5 38.25 33.3807 38.25 32C38.25 30.6193 37.1307 29.5 35.75 29.5C34.3693 29.5 33.25 30.6193 33.25 32C33.25 33.3807 34.3693 34.5 35.75 34.5Z" fill="white"/>
<path d="M33.25 2L22 14.5" stroke="black" stroke-width="4" stroke-linecap="round"/>
<path d="M42 3.25L35.75 10.75" stroke="black" stroke-width="4" stroke-linecap="round"/>
<path d="M21.51 66.44V70.55H15.93V87.5H10.8V70.55H5.22V66.44H21.51ZM29.2146 73.55C29.8146 72.63 30.5646 71.91 31.4646 71.39C32.3646 70.85 33.3646 70.58 34.4646 70.58V76.01H33.0546C31.7746 76.01 30.8146 76.29 30.1746 76.85C29.5346 77.39 29.2146 78.35 29.2146 79.73V87.5H24.0846V70.76H29.2146V73.55ZM35.8966 79.1C35.8966 77.38 36.2166 75.87 36.8566 74.57C37.5166 73.27 38.4066 72.27 39.5266 71.57C40.6466 70.87 41.8966 70.52 43.2766 70.52C44.4566 70.52 45.4866 70.76 46.3666 71.24C47.2666 71.72 47.9566 72.35 48.4366 73.13V70.76H53.5666V87.5H48.4366V85.13C47.9366 85.91 47.2366 86.54 46.3366 87.02C45.4566 87.5 44.4266 87.74 43.2466 87.74C41.8866 87.74 40.6466 87.39 39.5266 86.69C38.4066 85.97 37.5166 84.96 36.8566 83.66C36.2166 82.34 35.8966 80.82 35.8966 79.1ZM48.4366 79.13C48.4366 77.85 48.0766 76.84 47.3566 76.1C46.6566 75.36 45.7966 74.99 44.7766 74.99C43.7566 74.99 42.8866 75.36 42.1666 76.1C41.4666 76.82 41.1166 77.82 41.1166 79.1C41.1166 80.38 41.4666 81.4 42.1666 82.16C42.8866 82.9 43.7566 83.27 44.7766 83.27C45.7966 83.27 46.6566 82.9 47.3566 82.16C48.0766 81.42 48.4366 80.41 48.4366 79.13ZM64.808 82.7L68.438 70.76H73.898L67.958 87.5H61.628L55.688 70.76H61.178L64.808 82.7ZM91.8373 78.86C91.8373 79.34 91.8073 79.84 91.7473 80.36H80.1373C80.2173 81.4 80.5473 82.2 81.1273 82.76C81.7273 83.3 82.4573 83.57 83.3173 83.57C84.5973 83.57 85.4873 83.03 85.9873 81.95H91.4473C91.1673 83.05 90.6573 84.04 89.9173 84.92C89.1973 85.8 88.2873 86.49 87.1873 86.99C86.0873 87.49 84.8573 87.74 83.4973 87.74C81.8573 87.74 80.3973 87.39 79.1173 86.69C77.8373 85.99 76.8373 84.99 76.1173 83.69C75.3973 82.39 75.0373 80.87 75.0373 79.13C75.0373 77.39 75.3873 75.87 76.0873 74.57C76.8073 73.27 77.8073 72.27 79.0873 71.57C80.3673 70.87 81.8373 70.52 83.4973 70.52C85.1173 70.52 86.5573 70.86 87.8173 71.54C89.0773 72.22 90.0573 73.19 90.7573 74.45C91.4773 75.71 91.8373 77.18 91.8373 78.86ZM86.5873 77.51C86.5873 76.63 86.2873 75.93 85.6873 75.41C85.0873 74.89 84.3373 74.63 83.4373 74.63C82.5773 74.63 81.8473 74.88 81.2473 75.38C80.6673 75.88 80.3073 76.59 80.1673 77.51H86.5873ZM99.6736 65.3V87.5H94.5436V65.3H99.6736Z" fill="black"/>
<path d="M108.401 81.08C108.701 82.66 109.621 83.45 111.161 83.45C112.221 83.45 112.971 82.98 113.411 82.04C113.851 81.1 114.071 79.57 114.071 77.45C113.631 78.07 113.031 78.55 112.271 78.89C111.511 79.23 110.661 79.4 109.721 79.4C108.441 79.4 107.301 79.14 106.301 78.62C105.301 78.08 104.511 77.29 103.931 76.25C103.371 75.19 103.091 73.91 103.091 72.41C103.091 70.93 103.391 69.64 103.991 68.54C104.611 67.44 105.481 66.59 106.601 65.99C107.741 65.39 109.081 65.09 110.621 65.09C113.581 65.09 115.651 66.01 116.831 67.85C118.011 69.69 118.601 72.4 118.601 75.98C118.601 78.58 118.361 80.73 117.881 82.43C117.421 84.11 116.631 85.39 115.511 86.27C114.411 87.15 112.901 87.59 110.981 87.59C109.461 87.59 108.161 87.29 107.081 86.69C106.021 86.09 105.201 85.3 104.621 84.32C104.061 83.34 103.741 82.26 103.661 81.08H108.401ZM110.891 75.35C111.731 75.35 112.401 75.1 112.901 74.6C113.401 74.08 113.651 73.38 113.651 72.5C113.651 71.54 113.391 70.8 112.871 70.28C112.351 69.76 111.651 69.5 110.771 69.5C109.891 69.5 109.191 69.77 108.671 70.31C108.171 70.83 107.921 71.55 107.921 72.47C107.921 73.33 108.171 74.03 108.671 74.57C109.191 75.09 109.931 75.35 110.891 75.35ZM124.398 69.02C123.498 69.02 122.758 68.76 122.178 68.24C121.618 67.7 121.338 67.04 121.338 66.26C121.338 65.46 121.618 64.8 122.178 64.28C122.758 63.74 123.498 63.47 124.398 63.47C125.278 63.47 125.998 63.74 126.558 64.28C127.138 64.8 127.428 65.46 127.428 66.26C127.428 67.04 127.138 67.7 126.558 68.24C125.998 68.76 125.278 69.02 124.398 69.02ZM126.978 89.66C126.978 91.72 126.458 93.2 125.418 94.1C124.378 95.02 122.928 95.48 121.068 95.48H119.058V91.13H120.288C120.848 91.13 121.248 91.02 121.488 90.8C121.728 90.58 121.848 90.22 121.848 89.72V70.76H126.978V89.66ZM129.647 79.1C129.647 77.38 129.967 75.87 130.607 74.57C131.267 73.27 132.157 72.27 133.277 71.57C134.397 70.87 135.647 70.52 137.027 70.52C138.207 70.52 139.237 70.76 140.117 71.24C141.017 71.72 141.707 72.35 142.187 73.13V70.76H147.317V87.5H142.187V85.13C141.687 85.91 140.987 86.54 140.087 87.02C139.207 87.5 138.177 87.74 136.997 87.74C135.637 87.74 134.397 87.39 133.277 86.69C132.157 85.97 131.267 84.96 130.607 83.66C129.967 82.34 129.647 80.82 129.647 79.1ZM142.187 79.13C142.187 77.85 141.827 76.84 141.107 76.1C140.407 75.36 139.547 74.99 138.527 74.99C137.507 74.99 136.637 75.36 135.917 76.1C135.217 76.82 134.867 77.82 134.867 79.1C134.867 80.38 135.217 81.4 135.917 82.16C136.637 82.9 137.507 83.27 138.527 83.27C139.547 83.27 140.407 82.9 141.107 82.16C141.827 81.42 142.187 80.41 142.187 79.13Z" fill="#2F88FF"/>
</svg>
