<svg width="26" height="27" viewBox="0 0 26 27" fill="none" xmlns="http://www.w3.org/2000/svg">
<path d="M13 0.5C16.4478 0.5 19.7544 1.86964 22.1924 4.30761C24.6304 6.74558 26 10.0522 26 13.5C26 16.9478 24.6304 20.2544 22.1924 22.6924C19.7544 25.1304 16.4478 26.5 13 26.5C9.55219 26.5 6.24558 25.1304 3.80761 22.6924C1.36964 20.2544 0 16.9478 0 13.5C0 10.0522 1.36964 6.74558 3.80761 4.30761C6.24558 1.86964 9.55219 0.5 13 0.5ZM13 24.6429C15.9553 24.6429 18.7895 23.4689 20.8792 21.3792C22.9689 19.2895 24.1429 16.4553 24.1429 13.5C24.1429 10.5447 22.9689 7.7105 20.8792 5.62081C18.7895 3.53112 15.9553 2.35714 13 2.35714C10.0447 2.35714 7.2105 3.53112 5.12081 5.62081C3.03112 7.7105 1.85714 10.5447 1.85714 13.5C1.85714 16.4553 3.03112 19.2895 5.12081 21.3792C7.2105 23.4689 10.0447 24.6429 13 24.6429ZM11.6071 17.4576L17.5444 13.5L11.6071 9.54243V17.4576ZM11.9154 7.51443L19.1546 12.3411C19.3453 12.4683 19.5017 12.6407 19.6099 12.8428C19.7181 13.045 19.7747 13.2707 19.7747 13.5C19.7747 13.7293 19.7181 13.955 19.6099 14.1572C19.5017 14.3593 19.3453 14.5317 19.1546 14.6589L11.9154 19.4856C11.7057 19.6254 11.4619 19.7057 11.2101 19.7178C10.9583 19.73 10.7079 19.6736 10.4856 19.5547C10.2634 19.4357 10.0776 19.2587 9.94801 19.0424C9.81845 18.8262 9.75002 18.5788 9.75 18.3267V8.67143C9.75002 8.41933 9.81845 8.17197 9.94801 7.95572C10.0776 7.73946 10.2634 7.56242 10.4856 7.44347C10.7079 7.32452 10.9583 7.26813 11.2101 7.2803C11.4619 7.29247 11.7057 7.37274 11.9154 7.51257V7.51443Z" fill="white"/>
</svg>
